<svg width="100" height="100" viewBox="0 0 100 100" fill="none" xmlns="http://www.w3.org/2000/svg">
<rect width="100" height="100" rx="20" fill="#FEAF31"/>
<path d="M10.6179 49.7912V48.3636C11.437 48.3636 12.0052 48.2003 12.3224 47.8736C12.6397 47.5469 12.7983 47.0189 12.7983 46.2898V44.7202C12.7983 43.8442 12.919 43.1435 13.1605 42.6179C13.4067 42.0876 13.7476 41.6875 14.1832 41.4176C14.6236 41.1477 15.1444 40.9678 15.7457 40.8778C16.3471 40.7879 17.0052 40.7429 17.7202 40.7429V43.0014C17.1615 43.0014 16.7353 43.0748 16.4418 43.2216C16.1529 43.3636 15.9564 43.5862 15.8523 43.8892C15.7481 44.1875 15.696 44.5663 15.696 45.0256V47.0994C15.696 47.4593 15.6297 47.8026 15.4972 48.1293C15.3646 48.4512 15.1184 48.7377 14.7585 48.9886C14.3987 49.2348 13.8849 49.4313 13.2173 49.5781C12.5497 49.7202 11.6832 49.7912 10.6179 49.7912ZM17.7202 58.7188C17.0052 58.7188 16.3471 58.6738 15.7457 58.5838C15.1444 58.4938 14.6236 58.3139 14.1832 58.044C13.7476 57.7741 13.4067 57.3764 13.1605 56.8509C12.919 56.3205 12.7983 55.6174 12.7983 54.7415V53.1648C12.7983 52.4356 12.6397 51.9077 12.3224 51.581C12.0052 51.2543 11.437 51.0909 10.6179 51.0909V49.6634C11.6832 49.6634 12.5497 49.7367 13.2173 49.8835C13.8849 50.0256 14.3987 50.2221 14.7585 50.473C15.1184 50.7192 15.3646 51.0057 15.4972 51.3324C15.6297 51.6544 15.696 51.9976 15.696 52.3622V54.4361C15.696 54.8906 15.7481 55.2694 15.8523 55.5724C15.9564 55.8707 16.1529 56.0933 16.4418 56.2401C16.7353 56.3821 17.1615 56.4531 17.7202 56.4531V58.7188ZM10.6179 51.0909V48.3636H13.1676V51.0909H10.6179ZM29.9006 42.4545H32.9403V52.5966C32.9403 53.5341 32.7296 54.3485 32.3082 55.0398C31.8916 55.7311 31.3116 56.2637 30.5682 56.6378C29.8248 57.0118 28.9607 57.1989 27.9759 57.1989C27.0999 57.1989 26.3045 57.045 25.5895 56.7372C24.8793 56.4247 24.3158 55.9512 23.8991 55.3168C23.4825 54.6776 23.2765 53.875 23.2812 52.9091H26.3423C26.3518 53.2926 26.4299 53.6217 26.5767 53.8963C26.7282 54.1662 26.9342 54.3745 27.1946 54.5213C27.4598 54.6634 27.7723 54.7344 28.1321 54.7344C28.5109 54.7344 28.8305 54.6539 29.0909 54.4929C29.3561 54.3272 29.5573 54.0857 29.6946 53.7685C29.8319 53.4512 29.9006 53.0606 29.9006 52.5966V42.4545ZM43.3736 46.6378C43.3168 46.0649 43.0729 45.6198 42.642 45.3026C42.2112 44.9853 41.6264 44.8267 40.8878 44.8267C40.3859 44.8267 39.9621 44.8977 39.6165 45.0398C39.2708 45.1771 39.0057 45.3688 38.821 45.6151C38.6411 45.8613 38.5511 46.1406 38.5511 46.4531C38.5417 46.7135 38.5961 46.9408 38.7145 47.1349C38.8376 47.3291 39.0057 47.4972 39.2188 47.6392C39.4318 47.7765 39.678 47.8973 39.9574 48.0014C40.2367 48.1009 40.535 48.1861 40.8523 48.2571L42.1591 48.5696C42.7936 48.7116 43.3759 48.901 43.9062 49.1378C44.4366 49.3745 44.8958 49.6657 45.2841 50.0114C45.6723 50.357 45.973 50.7642 46.1861 51.233C46.4039 51.7017 46.5152 52.2391 46.5199 52.8452C46.5152 53.7353 46.2879 54.5071 45.8381 55.1605C45.393 55.8092 44.7491 56.3134 43.9062 56.6733C43.0682 57.0284 42.0573 57.206 40.8736 57.206C39.6993 57.206 38.6766 57.026 37.8054 56.6662C36.9389 56.3063 36.2618 55.7737 35.7741 55.0682C35.2912 54.358 35.0379 53.4796 35.0142 52.4332H37.9901C38.0232 52.9209 38.1629 53.3281 38.4091 53.6548C38.66 53.9768 38.9938 54.2206 39.4105 54.3864C39.8319 54.5473 40.3078 54.6278 40.8381 54.6278C41.3589 54.6278 41.8111 54.5521 42.1946 54.4006C42.5829 54.2491 42.8835 54.0384 43.0966 53.7685C43.3097 53.4986 43.4162 53.1884 43.4162 52.8381C43.4162 52.5114 43.3191 52.2367 43.125 52.0142C42.9356 51.7917 42.6563 51.6023 42.2869 51.446C41.9223 51.2898 41.4749 51.1477 40.9446 51.0199L39.3608 50.6222C38.1345 50.3239 37.1662 49.8575 36.456 49.223C35.7457 48.5885 35.393 47.7339 35.3977 46.6591C35.393 45.7784 35.6274 45.009 36.1009 44.3509C36.5791 43.6927 37.2348 43.179 38.0682 42.8097C38.9015 42.4403 39.8485 42.2557 40.9091 42.2557C41.9886 42.2557 42.9309 42.4403 43.7358 42.8097C44.5455 43.179 45.1752 43.6927 45.625 44.3509C46.0748 45.009 46.3068 45.7713 46.321 46.6378H43.3736ZM61.9549 49.7273C61.9549 51.3134 61.6542 52.6629 61.0529 53.7756C60.4563 54.8883 59.6419 55.7382 58.6097 56.3253C57.5823 56.9077 56.427 57.1989 55.1438 57.1989C53.8512 57.1989 52.6912 56.9053 51.6637 56.3182C50.6362 55.7311 49.8242 54.8812 49.2276 53.7685C48.631 52.6558 48.3327 51.3087 48.3327 49.7273C48.3327 48.1411 48.631 46.7917 49.2276 45.679C49.8242 44.5663 50.6362 43.7187 51.6637 43.1364C52.6912 42.5492 53.8512 42.2557 55.1438 42.2557C56.427 42.2557 57.5823 42.5492 58.6097 43.1364C59.6419 43.7187 60.4563 44.5663 61.0529 45.679C61.6542 46.7917 61.9549 48.1411 61.9549 49.7273ZM58.837 49.7273C58.837 48.6998 58.6831 47.8333 58.3754 47.1278C58.0723 46.4223 57.6438 45.8873 57.0898 45.5227C56.5359 45.1581 55.8872 44.9759 55.1438 44.9759C54.4004 44.9759 53.7518 45.1581 53.1978 45.5227C52.6438 45.8873 52.2129 46.4223 51.9052 47.1278C51.6022 47.8333 51.4506 48.6998 51.4506 49.7273C51.4506 50.7547 51.6022 51.6212 51.9052 52.3267C52.2129 53.0322 52.6438 53.5672 53.1978 53.9318C53.7518 54.2964 54.4004 54.4787 55.1438 54.4787C55.8872 54.4787 56.5359 54.2964 57.0898 53.9318C57.6438 53.5672 58.0723 53.0322 58.3754 52.3267C58.6831 51.6212 58.837 50.7547 58.837 49.7273ZM76.3991 42.4545V57H73.7429L67.4148 47.8452H67.3082V57H64.233V42.4545H66.9318L73.2102 51.6023H73.3381V42.4545H76.3991ZM89.8686 49.6634V51.0909C89.0542 51.0909 88.486 51.2543 88.1641 51.581C87.8468 51.9077 87.6882 52.4356 87.6882 53.1648V54.7415C87.6882 55.6174 87.5651 56.3205 87.3189 56.8509C87.0774 57.3764 86.7365 57.7741 86.2962 58.044C85.8606 58.3139 85.3421 58.4938 84.7408 58.5838C84.1442 58.6738 83.486 58.7188 82.7663 58.7188V56.4531C83.325 56.4531 83.7488 56.3821 84.0376 56.2401C84.3312 56.0933 84.5301 55.8707 84.6342 55.5724C84.7384 55.2694 84.7905 54.8906 84.7905 54.4361V52.3622C84.7905 51.9976 84.8568 51.6544 84.9893 51.3324C85.1219 51.0057 85.3681 50.7192 85.728 50.473C86.0878 50.2221 86.6016 50.0256 87.2692 49.8835C87.9368 49.7367 88.8033 49.6634 89.8686 49.6634ZM82.7663 40.7429C83.486 40.7429 84.1442 40.7879 84.7408 40.8778C85.3421 40.9678 85.8606 41.1477 86.2962 41.4176C86.7365 41.6875 87.0774 42.0876 87.3189 42.6179C87.5651 43.1435 87.6882 43.8442 87.6882 44.7202V46.2898C87.6882 47.0189 87.8468 47.5469 88.1641 47.8736C88.486 48.2003 89.0542 48.3636 89.8686 48.3636V49.7912C88.8033 49.7912 87.9368 49.7202 87.2692 49.5781C86.6016 49.4313 86.0878 49.2348 85.728 48.9886C85.3681 48.7377 85.1219 48.4512 84.9893 48.1293C84.8568 47.8026 84.7905 47.4593 84.7905 47.0994V45.0256C84.7905 44.5663 84.7384 44.1875 84.6342 43.8892C84.5301 43.5862 84.3312 43.3636 84.0376 43.2216C83.7488 43.0748 83.325 43.0014 82.7663 43.0014V40.7429ZM89.8686 48.3636V51.0909H87.3189V48.3636H89.8686Z" fill="white"/>
</svg>
