<svg width="100" height="100" viewBox="0 0 100 100" fill="none" xmlns="http://www.w3.org/2000/svg">
<rect width="100" height="100" rx="20" fill="#00DDB3"/>
<path d="M9.89631 61V39.1818H14.5092V57.1967H23.8629V61H9.89631ZM34.226 61.3196C32.5712 61.3196 31.1401 60.968 29.9327 60.2649C28.7324 59.5547 27.8056 58.5675 27.1522 57.3033C26.4988 56.032 26.1721 54.5582 26.1721 52.8821C26.1721 51.1918 26.4988 49.7145 27.1522 48.4503C27.8056 47.179 28.7324 46.1918 29.9327 45.4886C31.1401 44.7784 32.5712 44.4233 34.226 44.4233C35.8809 44.4233 37.3084 44.7784 38.5087 45.4886C39.7161 46.1918 40.6465 47.179 41.2999 48.4503C41.9533 49.7145 42.28 51.1918 42.28 52.8821C42.28 54.5582 41.9533 56.032 41.2999 57.3033C40.6465 58.5675 39.7161 59.5547 38.5087 60.2649C37.3084 60.968 35.8809 61.3196 34.226 61.3196ZM34.2473 57.804C35.0002 57.804 35.6287 57.5909 36.133 57.1648C36.6373 56.7315 37.0172 56.142 37.2729 55.3963C37.5357 54.6506 37.6671 53.8018 37.6671 52.8501C37.6671 51.8984 37.5357 51.0497 37.2729 50.304C37.0172 49.5582 36.6373 48.9687 36.133 48.5355C35.6287 48.1023 35.0002 47.8857 34.2473 47.8857C33.4874 47.8857 32.8482 48.1023 32.3297 48.5355C31.8184 48.9687 31.4313 49.5582 31.1685 50.304C30.9128 51.0497 30.785 51.8984 30.785 52.8501C30.785 53.8018 30.9128 54.6506 31.1685 55.3963C31.4313 56.142 31.8184 56.7315 32.3297 57.1648C32.8482 57.5909 33.4874 57.804 34.2473 57.804ZM53.9348 44.6364V48.0455H44.0804V44.6364H53.9348ZM46.3176 40.7159H50.856V55.9716C50.856 56.3906 50.9199 56.7173 51.0478 56.9517C51.1756 57.179 51.3532 57.3388 51.5804 57.4311C51.8148 57.5234 52.0847 57.5696 52.3901 57.5696C52.6032 57.5696 52.8162 57.5518 53.0293 57.5163C53.2424 57.4737 53.4057 57.4418 53.5194 57.4205L54.2331 60.7976C54.0059 60.8686 53.6863 60.9503 53.2743 61.0426C52.8624 61.142 52.3617 61.2024 51.7722 61.2237C50.6784 61.2663 49.7196 61.1207 48.8958 60.7869C48.079 60.4531 47.4434 59.9347 46.9888 59.2315C46.5343 58.5284 46.3105 57.6406 46.3176 56.5682V40.7159ZM65.595 44.6364V48.0455H55.7406V44.6364H65.595ZM57.9778 40.7159H62.5162V55.9716C62.5162 56.3906 62.5801 56.7173 62.7079 56.9517C62.8358 57.179 63.0133 57.3388 63.2406 57.4311C63.475 57.5234 63.7449 57.5696 64.0502 57.5696C64.2633 57.5696 64.4764 57.5518 64.6895 57.5163C64.9025 57.4737 65.0659 57.4418 65.1795 57.4205L65.8933 60.7976C65.666 60.8686 65.3464 60.9503 64.9345 61.0426C64.5225 61.142 64.0218 61.2024 63.4324 61.2237C62.3386 61.2663 61.3798 61.1207 60.5559 60.7869C59.7392 60.4531 59.1035 59.9347 58.649 59.2315C58.1944 58.5284 57.9707 57.6406 57.9778 56.5682V40.7159ZM68.5513 61V44.6364H73.0897V61H68.5513ZM70.8311 42.527C70.1564 42.527 69.5776 42.3033 69.0946 41.8558C68.6188 41.4013 68.3809 40.858 68.3809 40.2259C68.3809 39.6009 68.6188 39.0646 69.0946 38.6172C69.5776 38.1626 70.1564 37.9354 70.8311 37.9354C71.5059 37.9354 72.0811 38.1626 72.557 38.6172C73.04 39.0646 73.2814 39.6009 73.2814 40.2259C73.2814 40.858 73.04 41.4013 72.557 41.8558C72.0811 42.3033 71.5059 42.527 70.8311 42.527ZM84.1825 61.3196C82.4993 61.3196 81.0504 60.9787 79.8359 60.2969C78.6286 59.608 77.6982 58.6349 77.0447 57.3778C76.3913 56.1136 76.0646 54.6186 76.0646 52.8928C76.0646 51.2095 76.3913 49.7322 77.0447 48.4609C77.6982 47.1896 78.6179 46.1989 79.804 45.4886C80.9972 44.7784 82.3963 44.4233 84.0014 44.4233C85.081 44.4233 86.0859 44.5973 87.0163 44.9453C87.9538 45.2862 88.7706 45.8011 89.4666 46.4901C90.1697 47.179 90.7166 48.0455 91.1072 49.0895C91.4979 50.1264 91.6932 51.3409 91.6932 52.733V53.9794H77.8757V51.1669H87.4212C87.4212 50.5135 87.2791 49.9347 86.995 49.4304C86.7109 48.9261 86.3168 48.532 85.8125 48.2479C85.3153 47.9567 84.7365 47.8111 84.076 47.8111C83.3871 47.8111 82.7763 47.9709 82.2436 48.2905C81.718 48.603 81.3061 49.0256 81.0078 49.5582C80.7095 50.0838 80.5568 50.6697 80.5497 51.3161V53.9901C80.5497 54.7997 80.6989 55.4993 80.9972 56.0888C81.3026 56.6783 81.7322 57.1328 82.2862 57.4524C82.8402 57.772 83.4972 57.9318 84.2571 57.9318C84.7614 57.9318 85.223 57.8608 85.642 57.7188C86.0611 57.5767 86.4197 57.3636 86.718 57.0795C87.0163 56.7955 87.2436 56.4474 87.3999 56.0355L91.5973 56.3125C91.3842 57.321 90.9474 58.2017 90.2869 58.9545C89.6335 59.7003 88.7884 60.2827 87.7514 60.7017C86.7216 61.1136 85.532 61.3196 84.1825 61.3196Z" fill="black"/>
</svg>
